<svg width="34" height="27" viewBox="0 0 34 27" fill="none" xmlns="http://www.w3.org/2000/svg">
<path d="M34 15.5C34 21.8513 26.3888 27 17 27C7.61116 27 0 21.8513 0 15.5C0 9.14873 7.61116 4 17 4C26.3888 4 34 9.14873 34 15.5Z" fill="black"/>
<path d="M34 15.5C34 21.8513 26.3888 27 17 27C7.61116 27 0 21.8513 0 15.5C0 9.14873 7.61116 4 17 4C26.3888 4 34 9.14873 34 15.5Z" fill="black"/>
<path d="M28 12C28 17.5228 23.0751 22 17 22C10.9249 22 6 17.5228 6 12C6 6.47715 10.9249 2 17 2C23.0751 2 28 6.47715 28 12Z" fill="black"/>
<path d="M28 12C28 17.5228 23.0751 22 17 22C10.9249 22 6 17.5228 6 12C6 6.47715 10.9249 2 17 2C23.0751 2 28 6.47715 28 12Z" fill="white"/>
<path d="M27 10C27 15.5228 22.5228 20 17 20C11.4772 20 7 15.5228 7 10C7 4.47715 11.4772 0 17 0C22.5228 0 27 4.47715 27 10Z" fill="black"/>
<path d="M27 10C27 15.5228 22.5228 20 17 20C11.4772 20 7 15.5228 7 10C7 4.47715 11.4772 0 17 0C22.5228 0 27 4.47715 27 10Z" fill="black"/>
</svg>
