<svg width="33" height="24" viewBox="0 0 33 24" fill="none" xmlns="http://www.w3.org/2000/svg">
<ellipse cx="16.5" cy="12" rx="16.5" ry="12" fill="black"/>
<ellipse cx="16.5" cy="12" rx="16.5" ry="12" fill="black"/>
<path d="M26 9.5C26 13.4551 21.9545 17 16.5 17C11.0455 17 7 13.4551 7 9.5C7 5.5449 11.0455 2 16.5 2C21.9545 2 26 5.5449 26 9.5Z" fill="black"/>
<path d="M26 9.5C26 13.4551 21.9545 17 16.5 17C11.0455 17 7 13.4551 7 9.5C7 5.5449 11.0455 2 16.5 2C21.9545 2 26 5.5449 26 9.5Z" fill="black"/>
<path d="M26 9.5C26 13.4551 21.9545 17 16.5 17C11.0455 17 7 13.4551 7 9.5C7 5.5449 11.0455 2 16.5 2C21.9545 2 26 5.5449 26 9.5Z" stroke="white" stroke-width="2"/>
<path d="M26 9.5C26 14.1026 21.8432 18 16.5 18C11.1568 18 7 14.1026 7 9.5C7 4.89739 11.1568 1 16.5 1C21.8432 1 26 4.89739 26 9.5Z" fill="black"/>
<path d="M26 9.5C26 14.1026 21.8432 18 16.5 18C11.1568 18 7 14.1026 7 9.5C7 4.89739 11.1568 1 16.5 1C21.8432 1 26 4.89739 26 9.5Z" fill="black"/>
<path d="M26 9.5C26 14.1026 21.8432 18 16.5 18C11.1568 18 7 14.1026 7 9.5C7 4.89739 11.1568 1 16.5 1C21.8432 1 26 4.89739 26 9.5Z" stroke="black" stroke-width="2"/>
</svg>
